<?xml version="1.0" encoding="UTF-8" standalone="no"?>
<svg
   xmlns:dc="http://purl.org/dc/elements/1.1/"
   xmlns:cc="http://creativecommons.org/ns#"
   xmlns:rdf="http://www.w3.org/1999/02/22-rdf-syntax-ns#"
   xmlns:svg="http://www.w3.org/2000/svg"
   xmlns="http://www.w3.org/2000/svg"
   xmlns:sodipodi="http://sodipodi.sourceforge.net/DTD/sodipodi-0.dtd"
   xmlns:inkscape="http://www.inkscape.org/namespaces/inkscape"
   width="110mm"
   height="110mm"
   viewBox="0 0 110 110"
   version="1.1"
   id="demo"
   inkscape:version="1.0.1 (3bc2e813f5, 2020-09-07)"
   sodipodi:docname="2.svg">
  <style
     id="style2">
   *{
    fill:none;
   }
   </style>
  <defs
     id="defs975">
    <clipPath
       clipPathUnits="userSpaceOnUse"
       id="clipEmfPath1-8">
      <path
         d="M -301.30726,-151.98685 H 937.25223 V 431.96262 H -301.30726 Z"
         id="path128-1" />
    </clipPath>
    <clipPath
       clipPathUnits="userSpaceOnUse"
       id="clipEmfPath1-8-2">
      <path
         d="M -301.30726,-151.98685 H 937.25223 V 431.96262 H -301.30726 Z"
         id="path128-1-9" />
    </clipPath>
  </defs>
  <sodipodi:namedview
     id="base"
     pagecolor="#ffffff"
     bordercolor="#666666"
     borderopacity="1.0"
     inkscape:pageopacity="0.0"
     inkscape:pageshadow="2"
     inkscape:zoom="1.4"
     inkscape:cx="338.48137"
     inkscape:cy="206.37503"
     inkscape:document-units="mm"
     inkscape:current-layer="layer1"
     inkscape:document-rotation="0"
     showgrid="false"
     width="100mm"
     inkscape:window-width="1341"
     inkscape:window-height="1040"
     inkscape:window-x="433"
     inkscape:window-y="0"
     inkscape:window-maximized="0" />
  <metadata
     id="metadata978">
    <rdf:RDF>
      <cc:Work
         rdf:about="">
        <dc:format>image/svg+xml</dc:format>
        <dc:type
           rdf:resource="http://purl.org/dc/dcmitype/StillImage" />
        <dc:title />
      </cc:Work>
    </rdf:RDF>
  </metadata>
  <g
     inkscape:label="图层 1"
     inkscape:groupmode="layer"
     id="layer1">
    <rect
       style="stroke:#b62626;stroke-width:0.333939;stroke-opacity:0"
       id="rect53"
       width="23.970438"
       height="103.36559"
       x="48.532658"
       y="3.8425262"
       ry="12.600048"
       class="probe" />
    <g
       id="g51"
       class="graph">
      <path
         style="display:inline;fill:none;stroke:#000000;stroke-width:0.25;stroke-linecap:butt;stroke-linejoin:miter;stroke-miterlimit:4;stroke-dasharray:none;stroke-opacity:1"
         d="m 50.517886,31.525317 h 20"
         id="path1741" />
      <path
         style="display:inline;fill:none;stroke:#000000;stroke-width:0.25;stroke-linecap:butt;stroke-linejoin:miter;stroke-miterlimit:4;stroke-dasharray:none;stroke-opacity:1"
         d="m 50.517886,79.525315 h 20"
         id="path1741-3" />
      <g
         id="g885"
         transform="translate(21.166674,-4.2333335)">
        <path
           style="display:inline;fill:none;stroke:#000000;stroke-width:0.496335;stroke-linecap:butt;stroke-linejoin:miter;stroke-miterlimit:4;stroke-dasharray:none;stroke-opacity:1"
           d="m 49.103037,19.758652 v 80"
           id="path1693-7" />
        <path
           style="display:inline;fill:none;stroke:#000000;stroke-width:0.496335;stroke-linecap:butt;stroke-linejoin:miter;stroke-miterlimit:4;stroke-dasharray:none;stroke-opacity:1"
           d="m 29.599373,19.758652 v 80"
           id="path1693" />
        <path
           style="display:inline;fill:none;fill-opacity:1;stroke:#000000;stroke-width:1.30244;stroke-linecap:round;stroke-linejoin:round;stroke-miterlimit:4;stroke-dasharray:none;stroke-opacity:1"
           clip-path="url(#clipEmfPath1-8)"
           d="m 145.31506,77.068483 v -1.057469 l -0.0756,-1.057469 -0.11341,-1.057469 -0.1512,-1.095236 -0.18901,-1.019702 -0.26461,-1.057469 -0.2646,-1.019702 -0.34022,-1.019702 -0.37801,-1.019703 -0.37801,-0.981935 -0.45362,-0.981935 -0.49141,-0.944169 -0.52922,-0.944169 -0.56702,-0.906402 -0.60482,-0.868635 -0.64263,-0.868635 -0.68042,-0.830869 -0.71822,-0.793102 -0.75603,-0.793101 -0.75603,-0.717568 -0.79382,-0.717569 -0.83163,-0.679801 -0.86943,-0.642035 -0.86943,-0.604268 -0.94503,-0.566501 -0.90723,-0.528735 -0.94504,-0.490967 -0.98283,-0.453201 -0.98283,-0.415435 -1.02064,-0.3399 -1.02063,-0.339901 -1.02064,-0.302134 -1.05844,-0.2266 -1.05843,-0.188834 -1.05844,-0.151067 -1.05843,-0.1133 -1.05844,-0.07553 -1.09624,-0.03777 -1.05843,0.03777 -1.05844,0.07553 -1.09624,0.1133 -1.05843,0.151067 -1.02064,0.188834 -1.05844,0.2266 -1.02063,0.302134 -1.02064,0.339901 -1.02063,0.3399 -0.98283,0.415435 -0.98284,0.453201 -0.94503,0.490967 -0.94503,0.528735 -0.90723,0.566501 -0.86943,0.604268 -0.86943,0.642035 -0.83163,0.679801 -0.79383,0.717569 -0.79383,0.717568 -0.71822,0.793101 -0.718226,0.793102 -0.680424,0.830869 -0.642622,0.868635 -0.604821,0.868635 -0.567019,0.906402 -0.529218,0.944169 -0.491417,0.944169 -0.453616,0.981935 -0.415814,0.981935 -0.378013,1.019703 -0.30241,1.019702 -0.302411,1.019702 -0.226807,1.057469 -0.189007,1.019702 -0.151205,1.095236 -0.113404,1.057469 -0.0756,1.057469 -0.0378,1.057469"
           id="path138-6"
           transform="matrix(0.37618286,0,0,0.38352711,-5.5588081,-9.7965607)" />
        <path
           style="display:inline;fill:none;fill-opacity:1;stroke:#000000;stroke-width:1.30242;stroke-linecap:round;stroke-linejoin:round;stroke-miterlimit:4;stroke-dasharray:none;stroke-opacity:1"
           clip-path="url(#clipEmfPath1-8-2)"
           d="m 145.31506,77.068483 v -1.057469 l -0.0756,-1.057469 -0.11341,-1.057469 -0.1512,-1.095236 -0.18901,-1.019702 -0.26461,-1.057469 -0.2646,-1.019702 -0.34022,-1.019702 -0.37801,-1.019703 -0.37801,-0.981935 -0.45362,-0.981935 -0.49141,-0.944169 -0.52922,-0.944169 -0.56702,-0.906402 -0.60482,-0.868635 -0.64263,-0.868635 -0.68042,-0.830869 -0.71822,-0.793102 -0.75603,-0.793101 -0.75603,-0.717568 -0.79382,-0.717569 -0.83163,-0.679801 -0.86943,-0.642035 -0.86943,-0.604268 -0.94503,-0.566501 -0.90723,-0.528735 -0.94504,-0.490967 -0.98283,-0.453201 -0.98283,-0.415435 -1.02064,-0.3399 -1.02063,-0.339901 -1.02064,-0.302134 -1.05844,-0.2266 -1.05843,-0.188834 -1.05844,-0.151067 -1.05843,-0.1133 -1.05844,-0.07553 -1.09624,-0.03777 -1.05843,0.03777 -1.05844,0.07553 -1.09624,0.1133 -1.05843,0.151067 -1.02064,0.188834 -1.05844,0.2266 -1.02063,0.302134 -1.02064,0.339901 -1.02063,0.3399 -0.98283,0.415435 -0.98284,0.453201 -0.94503,0.490967 -0.94503,0.528735 -0.90723,0.566501 -0.86943,0.604268 -0.86943,0.642035 -0.83163,0.679801 -0.79383,0.717569 -0.79383,0.717568 -0.71822,0.793101 -0.718226,0.793102 -0.680424,0.830869 -0.642622,0.868635 -0.604821,0.868635 -0.567019,0.906402 -0.529218,0.944169 -0.491417,0.944169 -0.453616,0.981935 -0.415814,0.981935 -0.378013,1.019703 -0.30241,1.019702 -0.302411,1.019702 -0.226807,1.057469 -0.189007,1.019702 -0.151205,1.095236 -0.113404,1.057469 -0.0756,1.057469 -0.0378,1.057469"
           id="path138-6-1"
           transform="matrix(0.37642373,0,0,-0.38352635,-5.5939638,129.32566)" />
      </g>
      <path
         style="stroke:#000000;stroke-width:0.25;stroke-linecap:butt;stroke-linejoin:miter;stroke-miterlimit:4;stroke-dasharray:none;stroke-opacity:1"
         d="M 51.007193,31.523902 70.080624,79.526177"
         id="path857" />
      <path
         style="fill:none;stroke:#000000;stroke-width:0.25;stroke-linecap:butt;stroke-linejoin:miter;stroke-miterlimit:4;stroke-dasharray:none;stroke-opacity:1"
         d="M 70.117779,31.524203 51.044344,79.526426"
         id="path861" />
      <g
         id="g895"
         transform="translate(21.166674,-4.2333335)">
        <path
           style="display:inline;fill:none;stroke:#000000;stroke-width:0.496335;stroke-linecap:butt;stroke-linejoin:miter;stroke-miterlimit:4;stroke-dasharray:none;stroke-opacity:1"
           d="m 49.103037,19.758652 v 80"
           id="path887" />
        <path
           style="display:inline;fill:none;stroke:#000000;stroke-width:0.496335;stroke-linecap:butt;stroke-linejoin:miter;stroke-miterlimit:4;stroke-dasharray:none;stroke-opacity:1"
           d="m 29.599373,19.758652 v 80"
           id="path889" />
        <path
           style="display:inline;fill:none;fill-opacity:1;stroke:#000000;stroke-width:1.30244;stroke-linecap:round;stroke-linejoin:round;stroke-miterlimit:4;stroke-dasharray:none;stroke-opacity:1"
           clip-path="url(#clipEmfPath1-8)"
           d="m 145.31506,77.068483 v -1.057469 l -0.0756,-1.057469 -0.11341,-1.057469 -0.1512,-1.095236 -0.18901,-1.019702 -0.26461,-1.057469 -0.2646,-1.019702 -0.34022,-1.019702 -0.37801,-1.019703 -0.37801,-0.981935 -0.45362,-0.981935 -0.49141,-0.944169 -0.52922,-0.944169 -0.56702,-0.906402 -0.60482,-0.868635 -0.64263,-0.868635 -0.68042,-0.830869 -0.71822,-0.793102 -0.75603,-0.793101 -0.75603,-0.717568 -0.79382,-0.717569 -0.83163,-0.679801 -0.86943,-0.642035 -0.86943,-0.604268 -0.94503,-0.566501 -0.90723,-0.528735 -0.94504,-0.490967 -0.98283,-0.453201 -0.98283,-0.415435 -1.02064,-0.3399 -1.02063,-0.339901 -1.02064,-0.302134 -1.05844,-0.2266 -1.05843,-0.188834 -1.05844,-0.151067 -1.05843,-0.1133 -1.05844,-0.07553 -1.09624,-0.03777 -1.05843,0.03777 -1.05844,0.07553 -1.09624,0.1133 -1.05843,0.151067 -1.02064,0.188834 -1.05844,0.2266 -1.02063,0.302134 -1.02064,0.339901 -1.02063,0.3399 -0.98283,0.415435 -0.98284,0.453201 -0.94503,0.490967 -0.94503,0.528735 -0.90723,0.566501 -0.86943,0.604268 -0.86943,0.642035 -0.83163,0.679801 -0.79383,0.717569 -0.79383,0.717568 -0.71822,0.793101 -0.718226,0.793102 -0.680424,0.830869 -0.642622,0.868635 -0.604821,0.868635 -0.567019,0.906402 -0.529218,0.944169 -0.491417,0.944169 -0.453616,0.981935 -0.415814,0.981935 -0.378013,1.019703 -0.30241,1.019702 -0.302411,1.019702 -0.226807,1.057469 -0.189007,1.019702 -0.151205,1.095236 -0.113404,1.057469 -0.0756,1.057469 -0.0378,1.057469"
           id="path891"
           transform="matrix(0.37618286,0,0,0.38352711,-5.5588081,-9.7965607)" />
        <path
           style="display:inline;fill:none;fill-opacity:1;stroke:#000000;stroke-width:1.30242;stroke-linecap:round;stroke-linejoin:round;stroke-miterlimit:4;stroke-dasharray:none;stroke-opacity:1"
           clip-path="url(#clipEmfPath1-8-2)"
           d="m 145.31506,77.068483 v -1.057469 l -0.0756,-1.057469 -0.11341,-1.057469 -0.1512,-1.095236 -0.18901,-1.019702 -0.26461,-1.057469 -0.2646,-1.019702 -0.34022,-1.019702 -0.37801,-1.019703 -0.37801,-0.981935 -0.45362,-0.981935 -0.49141,-0.944169 -0.52922,-0.944169 -0.56702,-0.906402 -0.60482,-0.868635 -0.64263,-0.868635 -0.68042,-0.830869 -0.71822,-0.793102 -0.75603,-0.793101 -0.75603,-0.717568 -0.79382,-0.717569 -0.83163,-0.679801 -0.86943,-0.642035 -0.86943,-0.604268 -0.94503,-0.566501 -0.90723,-0.528735 -0.94504,-0.490967 -0.98283,-0.453201 -0.98283,-0.415435 -1.02064,-0.3399 -1.02063,-0.339901 -1.02064,-0.302134 -1.05844,-0.2266 -1.05843,-0.188834 -1.05844,-0.151067 -1.05843,-0.1133 -1.05844,-0.07553 -1.09624,-0.03777 -1.05843,0.03777 -1.05844,0.07553 -1.09624,0.1133 -1.05843,0.151067 -1.02064,0.188834 -1.05844,0.2266 -1.02063,0.302134 -1.02064,0.339901 -1.02063,0.3399 -0.98283,0.415435 -0.98284,0.453201 -0.94503,0.490967 -0.94503,0.528735 -0.90723,0.566501 -0.86943,0.604268 -0.86943,0.642035 -0.83163,0.679801 -0.79383,0.717569 -0.79383,0.717568 -0.71822,0.793101 -0.718226,0.793102 -0.680424,0.830869 -0.642622,0.868635 -0.604821,0.868635 -0.567019,0.906402 -0.529218,0.944169 -0.491417,0.944169 -0.453616,0.981935 -0.415814,0.981935 -0.378013,1.019703 -0.30241,1.019702 -0.302411,1.019702 -0.226807,1.057469 -0.189007,1.019702 -0.151205,1.095236 -0.113404,1.057469 -0.0756,1.057469 -0.0378,1.057469"
           id="path893"
           transform="matrix(0.37642373,0,0,-0.38352635,-5.5939638,129.32566)" />
      </g>
    </g>
    <rect
       style="fill:none;stroke:#b62626;stroke-width:0.294617;stroke-opacity:0"
       id="rect53-6"
       width="19.327925"
       height="99.78054"
       x="50.694969"
       y="5.5776157"
       ry="12.163036"
       class="border" />
    <ellipse
       style="display:inline;fill:#ff0000;fill-opacity:1;stroke:none;stroke-width:0.0431904;stroke-miterlimit:4;stroke-dasharray:none;stroke-opacity:1"
       id="ellipse897"
       cx="60.51786"
       cy="5.5936112"
       rx="0.97872895"
       ry="1.0002415"
       class="anchor anchorOut" />
    <ellipse
       style="display:inline;fill:#ff0000;fill-opacity:1;stroke:none;stroke-width:0.0432038;stroke-miterlimit:4;stroke-dasharray:none;stroke-opacity:1"
       id="ellipse899"
       cx="60.511436"
       cy="105.40312"
       rx="0.97935802"
       ry="1.0002202"
       class="anchor anchorOut" />
    <ellipse
       style="display:inline;fill:#ff0000;fill-opacity:1;stroke:none;stroke-width:0.0432038;stroke-miterlimit:4;stroke-dasharray:none;stroke-opacity:1"
       id="ellipse899-8"
       cx="50.648827"
       cy="87.199104"
       rx="0.97935802"
       ry="1.0002202"
       class="anchor anchorIn" />
    <ellipse
       style="display:inline;fill:#ff0000;fill-opacity:1;stroke:none;stroke-width:0.0432038;stroke-miterlimit:4;stroke-dasharray:none;stroke-opacity:1"
       id="ellipse899-8-4"
       cx="50.648827"
       cy="24.11488"
       rx="0.97935802"
       ry="1.0002202"
       class="anchor anchorIn" />
  </g>
</svg>
