<?xml version="1.0" encoding="UTF-8" standalone="no"?>
<svg
   xmlns:dc="http://purl.org/dc/elements/1.1/"
   xmlns:cc="http://creativecommons.org/ns#"
   xmlns:rdf="http://www.w3.org/1999/02/22-rdf-syntax-ns#"
   xmlns:svg="http://www.w3.org/2000/svg"
   xmlns="http://www.w3.org/2000/svg"
   xmlns:xlink="http://www.w3.org/1999/xlink"
   xmlns:sodipodi="http://sodipodi.sourceforge.net/DTD/sodipodi-0.dtd"
   xmlns:inkscape="http://www.inkscape.org/namespaces/inkscape"
   width="29.633333mm"
   height="29.633333mm"
   viewBox="0 0 112 112"
   version="1.1"
   id="demo"
   sodipodi:docname="吉普斯反应器.svg"
   inkscape:version="1.0.1 (3bc2e813f5, 2020-09-07)">
  <metadata
     id="metadata52">
    <rdf:RDF>
      <cc:Work
         rdf:about="">
        <dc:format>image/svg+xml</dc:format>
        <dc:type
           rdf:resource="http://purl.org/dc/dcmitype/StillImage" />
        <dc:title>吉普斯反应器</dc:title>
      </cc:Work>
    </rdf:RDF>
  </metadata>
  <sodipodi:namedview
     pagecolor="#ffffff"
     bordercolor="#666666"
     borderopacity="1"
     objecttolerance="10"
     gridtolerance="10"
     guidetolerance="10"
     inkscape:pageopacity="0"
     inkscape:pageshadow="2"
     inkscape:window-width="1680"
     inkscape:window-height="988"
     id="namedview50"
     showgrid="false"
     inkscape:document-units="mm"
     inkscape:zoom="6.7232143"
     inkscape:cx="56"
     inkscape:cy="56"
     inkscape:window-x="-8"
     inkscape:window-y="-8"
     inkscape:window-maximized="1"
     inkscape:current-layer="svg48"
     inkscape:document-rotation="0"
     units="mm" />
  <title
     id="title2">吉普斯反应器</title>
  <defs
     id="defs30">
    <linearGradient
       x1="70.315834"
       y1="29.868429"
       x2="122.13353"
       y2="29.868429"
       id="linearGradient-1a"
       gradientTransform="scale(0.58434871,1.7113069)"
       gradientUnits="userSpaceOnUse">
      <stop
         stop-color="#595959"
         offset="0%"
         id="stop4" />
      <stop
         stop-color="#A8A8A8"
         offset="14.438101%"
         id="stop6" />
      <stop
         stop-color="#D0D0D0"
         offset="29.7831075%"
         id="stop8" />
      <stop
         stop-color="#F4F4F4"
         offset="46.6866873%"
         id="stop10" />
      <stop
         stop-color="#D0D0D0"
         offset="64.9487475%"
         id="stop12" />
      <stop
         stop-color="#A8A8A8"
         offset="83.5370684%"
         id="stop14" />
      <stop
         stop-color="#595959"
         offset="100%"
         id="stop16" />
    </linearGradient>
    <linearGradient
       x1="95.833191"
       y1="49.881592"
       x2="95.833191"
       y2="56.681824"
       id="linearGradient-2a"
       gradientTransform="scale(0.58434871,1.7113069)"
       gradientUnits="userSpaceOnUse">
      <stop
         stop-color="#FFFFFF"
         stop-opacity="0"
         offset="0%"
         id="stop19" />
      <stop
         stop-color="#000000"
         stop-opacity="0.5"
         offset="99.9718299%"
         id="stop21" />
    </linearGradient>
    <linearGradient
       x1="95.833191"
       y1="8.7832012"
       x2="95.833191"
       y2="15.394708"
       id="linearGradient-3a"
       gradientTransform="scale(0.58434871,1.7113069)"
       gradientUnits="userSpaceOnUse">
      <stop
         stop-color="#000000"
         stop-opacity="0.5"
         offset="0%"
         id="stop24" />
      <stop
         stop-color="#FFFFFF"
         stop-opacity="0"
         offset="100%"
         id="stop26" />
    </linearGradient>
    <rect
       id="path-4"
       x="42"
       y="15"
       width="28"
       height="82"
       rx="14" />
  </defs>
  <g
     id="g912">
    <g
       id="g39"
       style="fill:none;fill-rule:evenodd;stroke:none;stroke-width:1">
      <use
         fill="url(#linearGradient-1a)"
         xlink:href="#path-4"
         id="use33"
         style="fill:url(#linearGradient-1a)"
         x="0"
         y="0"
         width="100%"
         height="100%" />
      <use
         fill="url(#linearGradient-2a)"
         xlink:href="#path-4"
         id="use35"
         style="fill:url(#linearGradient-2a)"
         x="0"
         y="0"
         width="100%"
         height="100%" />
      <use
         fill="url(#linearGradient-3a)"
         xlink:href="#path-4"
         id="use37"
         style="fill:url(#linearGradient-3a)"
         x="0"
         y="0"
         width="100%"
         height="100%" />
    </g>
    <path
       d="m 55.055284,62 c 1.049986,0 1.957028,-0.191462 2.721128,-0.574385 0.452221,-0.22251 1.003204,-0.620958 1.652948,-1.195343 v 0 l 0.06238,1.467011 h 0.998007 l 1.302087,-6.100905 h -5.029019 l -0.28069,1.280724 h 3.586587 c -0.296283,1.335058 -0.847266,2.301423 -1.652948,2.899095 -0.805683,0.597671 -1.725721,0.896507 -2.760113,0.896507 -1.351468,0 -2.236419,-0.425615 -2.654854,-1.276844 -0.418435,-0.851229 -0.48211,-1.954722 -0.191025,-3.310478 0.337867,-1.567918 0.953824,-2.747737 1.847872,-3.539457 0.894048,-0.791721 1.871263,-1.187581 2.931645,-1.187581 0.894048,0 1.593173,0.190168 2.097374,0.570505 0.504201,0.380336 0.7615,0.987063 0.771896,1.820181 v 0 H 61.99455 C 62.056925,52.258732 61.583911,51.216041 60.575509,50.620957 59.878983,50.206986 58.992732,50 57.916756,50 c -1.569781,0 -2.962832,0.538163 -4.179153,1.614489 -1.283895,1.128072 -2.128562,2.64683 -2.534002,4.556274 -0.410638,1.914619 -0.200121,3.42044 0.631551,4.517465 C 52.625241,61.562743 53.698618,62 55.055284,62 Z"
       id="G"
       fill-opacity="0.85"
       fill="#000000"
       fill-rule="nonzero"
       style="stroke:none;stroke-width:1" />
  </g>
  <path
     d="M 38.450214,53 42,56 38.450214,59 37.793594,58.20091 39.781,56.52 30,56.520091 V 55.479909 L 39.78,55.479 37.793594,53.79909 Z"
     id="连接点1"
     fill-opacity="0.05"
     fill="#ffffff"
     style="fill-rule:evenodd;stroke:none;stroke-width:1" />
  <path
     d="M 53,6.549786 56,3 59,6.549786 58.20091,7.206406 56.52,5.219 56.520091,15 H 55.479909 L 55.479,5.22 53.79909,7.206406 Z"
     id="连接点2"
     fill-opacity="0.05"
     fill="#ffffff"
     style="fill-rule:evenodd;stroke:none;stroke-width:1" />
  <path
     d="M 59,105.45021 56,109 53,105.45021 53.79909,104.79359 55.48,106.781 55.47991,97 h 1.04018 l 9.1e-4,9.78 1.67991,-1.98641 z"
     id="连接点3"
     fill-opacity="0.05"
     fill="#ffffff"
     style="fill-rule:evenodd;stroke:none;stroke-width:1" />
</svg>
